<svg xmlns="http://www.w3.org/2000/svg" viewBox="0 0 200 200">
  <defs>
    <!-- Professional Gradients -->
    <linearGradient id="blackGradient" x1="0%" y1="0%" x2="100%" y2="100%">
      <stop offset="0%" style="stop-color:#2C2C2C"/>
      <stop offset="100%" style="stop-color:#1A1A1A"/>
    </linearGradient>
    
    <linearGradient id="greenAccent" x1="0%" y1="0%" x2="100%" y2="100%">
      <stop offset="0%" style="stop-color:#4CAF50"/>
      <stop offset="100%" style="stop-color:#45A049"/>
    </linearGradient>
    
    <!-- Subtle Shadow -->
    <filter id="softShadow">
      <feGaussianBlur stdDeviation="1" result="shadow"/>
      <feOffset dx="0.5" dy="0.5"/>
      <feMerge>
        <feMergeNode in="shadow"/>
        <feMergeNode in="SourceGraphic"/>
      </feMerge>
    </filter>
  </defs>

  <!-- Main Circle -->
  <circle cx="100" cy="100" r="80" fill="url(#blackGradient)"/>
  
  <!-- Helper Figure -->
  <path d="
    M100 40
    A15 15 0 0 1 100 70
    L115 85
    A30 30 0 0 1 125 110
    L75 110
    A30 30 0 0 1 85 85
    L100 70
    Z" 
    fill="white"/>
    
  <!-- Professional Uniform -->
  <path d="
    M85 85
    L115 85
    L110 140
    L90 140
    Z"
    fill="url(#greenAccent)"/>
    
  <!-- Cleaning Tools -->
  <g transform="rotate(-30 75 90)" filter="url(#softShadow)">
    <rect x="70" y="90" width="5" height="40" fill="white"/>
    <rect x="65" y="120" width="15" height="10" fill="white"/>
  </g>
  
  <!-- House Frame -->
  <path d="
    M50 110
    L100 70
    L150 110
    L150 150
    L50 150
    Z"
    fill="none"
    stroke="white"
    stroke-width="2"
    opacity="0.3"/>
    
  <!-- Sparkle Elements -->
  <g fill="white" opacity="0.8">
    <path d="M60 60 L65 65 L70 60 L65 55 Z"/>
    <path d="M130 60 L135 65 L140 60 L135 55 Z"/>
    <path d="M95 150 L100 155 L105 150 L100 145 Z"/>
  </g>
  
  <!-- Service Lines -->
  <g stroke="white" fill="none" opacity="0.4">
    <path d="M40 100 Q100 80 160 100" stroke-width="1.5"/>
    <path d="M50 110 Q100 90 150 110" stroke-width="1"/>
  </g>
  
  <!-- Accent Circles -->
  <circle cx="60" cy="130" r="3" fill="#4CAF50" opacity="0.8"/>
  <circle cx="140" cy="130" r="3" fill="#4CAF50" opacity="0.8"/>
</svg>
