<svg xmlns="http://www.w3.org/2000/svg" viewBox="0 0 200 200">
  <defs>
    <!-- Professional Service Gradients -->
    <linearGradient id="primaryGradient" x1="0%" y1="0%" x2="100%" y2="100%">
      <stop offset="0%" style="stop-color:#9C27B0"/>
      <stop offset="100%" style="stop-color:#673AB7"/>
    </linearGradient>
    
    <linearGradient id="secondaryGradient" x1="0%" y1="0%" x2="100%" y2="100%">
      <stop offset="0%" style="stop-color:#FF4081"/>
      <stop offset="100%" style="stop-color:#FF80AB"/>
    </linearGradient>
    
    <!-- Glow Effect -->
    <filter id="glow">
      <feGaussianBlur stdDeviation="1.5" result="coloredBlur"/>
      <feMerge>
        <feMergeNode in="coloredBlur"/>
        <feMergeNode in="SourceGraphic"/>
      </feMerge>
    </filter>
  </defs>

  <!-- Circular Frame -->
  <circle cx="100" cy="100" r="80" fill="url(#primaryGradient)"/>
  
  <!-- Professional Helper Figure -->
  <path d="
    M100 40
    A15 15 0 0 1 100 70
    L115 85
    A30 30 0 0 1 125 110
    L75 110
    A30 30 0 0 1 85 85
    L100 70
    Z" 
    fill="#FFF"/>
    
  <!-- Apron Design -->
  <path d="
    M85 85
    L115 85
    L110 140
    L90 140
    Z"
    fill="url(#secondaryGradient)"/>
    
  <!-- Cleaning Tools -->
  <g transform="rotate(-30 75 90)">
    <rect x="70" y="90" width="5" height="40" fill="#FFF"/>
    <rect x="65" y="120" width="15" height="10" fill="#FFF"/>
  </g>
  
  <!-- Sparkle Elements -->
  <g fill="#FFF" opacity="0.9">
    <path d="M60 60 L65 65 L70 60 L65 55 Z"/>
    <path d="M130 60 L135 65 L140 60 L135 55 Z"/>
    <path d="M95 150 L100 155 L105 150 L100 145 Z"/>
  </g>
  
  <!-- Dynamic Service Lines -->
  <g stroke="#FFF" fill="none" opacity="0.6">
    <path d="M40 100 Q100 80 160 100" stroke-width="2"/>
    <path d="M50 110 Q100 90 150 110" stroke-width="1.5"/>
  </g>
  
  <!-- House Outline -->
  <path d="M60 140 L140 140 L140 110 L100 80 L60 110 Z" 
        fill="none" 
        stroke="#FFF" 
        stroke-width="2"
        opacity="0.3"/>
</svg>
