<svg xmlns="http://www.w3.org/2000/svg" viewBox="0 0 200 200">
  <defs>
    <!-- Gradients for rich colors -->
    <linearGradient id="primaryGradient" x1="0%" y1="0%" x2="100%" y2="100%">
      <stop offset="0%" style="stop-color:#FF2E7E"/>
      <stop offset="100%" style="stop-color:#FF8B2E"/>
    </linearGradient>
    <linearGradient id="secondaryGradient" x1="0%" y1="100%" x2="100%" y2="0%">
      <stop offset="0%" style="stop-color:#6A11CB"/>
      <stop offset="100%" style="stop-color:#2575FC"/>
    </linearGradient>
  </defs>

  <!-- Main Design Elements -->
  <!-- Stylized Home + Heart Combined Shape -->
  <path d="
    M100 20 
    L160 80 
    A20 20 0 0 1 160 110
    L140 110
    A40 40 0 0 1 60 110
    L40 110
    A20 20 0 0 1 40 80
    Z" 
    fill="url(#primaryGradient)"/>

  <!-- Caregiver Figure -->
  <path d="
    M100 60
    A15 15 0 0 1 100 90
    Q120 95 120 120
    L80 120
    Q80 95 100 90
    Z" 
    fill="url(#secondaryGradient)"/>

  <!-- Decorative Elements -->
  <circle cx="100" cy="70" r="8" fill="#FFF"/>
  
  <!-- Sparkles -->
  <path d="M50 60 L55 65 L60 60 L55 55 Z" fill="#FFF" opacity="0.9"/>
  <path d="M140 60 L145 65 L150 60 L145 55 Z" fill="#FFF" opacity="0.9"/>
  <path d="M100 140 L105 145 L110 140 L105 135 Z" fill="#FFF" opacity="0.9"/>
  
  <!-- Dynamic Swoosh Lines -->
  <path d="M40 90 Q100 70 160 90" stroke="#FFF" stroke-width="2" fill="none" opacity="0.6"/>
  <path d="M50 100 Q100 80 150 100" stroke="#FFF" stroke-width="2" fill="none" opacity="0.6"/>
</svg>
